<?xml version="1.0" encoding="UTF-8"?>
<!DOCTYPE svg PUBLIC "-//W3C//DTD SVG 1.1//EN" "http://www.w3.org/Graphics/SVG/1.1/DTD/svg11.dtd">
<svg xmlns="http://www.w3.org/2000/svg" version="1.1" width="503px" height="152px" style="shape-rendering:geometricPrecision; text-rendering:geometricPrecision; image-rendering:optimizeQuality; fill-rule:evenodd; clip-rule:evenodd" xmlns:xlink="http://www.w3.org/1999/xlink">
<g><path style="opacity:0.231" fill="#e3d6dd" d="M 252.5,23.5 C 249.615,23.1936 246.948,23.5269 244.5,24.5C 243.957,24.44 243.624,24.1067 243.5,23.5C 246.645,22.1968 249.645,22.1968 252.5,23.5 Z"/></g>
<g><path style="opacity:0.245" fill="#e4d8de" d="M 337.5,23.5 C 340.355,22.1968 343.355,22.1968 346.5,23.5C 346.376,24.1067 346.043,24.44 345.5,24.5C 343.052,23.5269 340.385,23.1936 337.5,23.5 Z"/></g>
<g><path style="opacity:0.775" fill="#c1b5df" d="M 184.5,23.5 C 182.167,23.5 179.833,23.5 177.5,23.5C 177.5,58.5 177.5,93.5 177.5,128.5C 179.833,128.5 182.167,128.5 184.5,128.5C 182.052,129.473 179.385,129.806 176.5,129.5C 175.238,93.7484 175.238,58.0817 176.5,22.5C 179.385,22.1936 182.052,22.5269 184.5,23.5 Z"/></g>
<g><path style="opacity:1" fill="#9481d4" d="M 184.5,23.5 C 185.829,58.5977 185.829,93.5977 184.5,128.5C 182.167,128.5 179.833,128.5 177.5,128.5C 177.5,93.5 177.5,58.5 177.5,23.5C 179.833,23.5 182.167,23.5 184.5,23.5 Z"/></g>
<g><path style="opacity:0.998" fill="#b385b1" d="M 252.5,23.5 C 267.149,54.1405 281.315,85.1405 295,116.5C 309.199,85.4402 323.366,54.4402 337.5,23.5C 340.385,23.1936 343.052,23.5269 345.5,24.5C 330.506,59.6538 314.839,94.4872 298.5,129C 293.004,130.89 289.504,129.057 288,123.5C 273.008,90.6831 258.508,57.6831 244.5,24.5C 246.948,23.5269 249.615,23.1936 252.5,23.5 Z"/></g>
<g><path style="opacity:0.998" fill="#d2868c" d="M 432.5,22.5 C 435.448,22.2229 438.281,22.5562 441,23.5C 457.038,58.4087 473.205,93.242 489.5,128C 486.277,129.126 483.111,129.293 480,128.5C 465.59,96.6827 450.924,65.016 436,33.5C 422.108,64.9521 407.941,96.2854 393.5,127.5C 390.416,129.357 387.249,129.69 384,128.5C 399.467,92.9689 415.634,57.6355 432.5,22.5 Z"/></g>
<g><path style="opacity:0.749" fill="#b7b9f4" d="M 61.5,24.5 C 61.573,26.0269 60.9063,27.0269 59.5,27.5C 59.427,25.9731 60.0937,24.9731 61.5,24.5 Z"/></g>
<g><path style="opacity:1" fill="#6976fb" d="M 66.5,24.5 C 66.427,26.0269 67.0937,27.0269 68.5,27.5C 68.427,29.0269 69.0937,30.0269 70.5,30.5C 72.2624,31.2623 73.2624,32.5956 73.5,34.5C 73.7376,36.4044 74.7376,37.7377 76.5,38.5C 76.7376,40.4044 77.7376,41.7377 79.5,42.5C 79.7376,44.4044 80.7376,45.7377 82.5,46.5C 82.427,48.0269 83.0937,49.0269 84.5,49.5C 84.7376,51.4044 85.7376,52.7377 87.5,53.5C 87.7376,55.4044 88.7376,56.7377 90.5,57.5C 90.7376,59.4044 91.7376,60.7377 93.5,61.5C 93.7376,63.4044 94.7376,64.7377 96.5,65.5C 96.427,67.0269 97.0937,68.0269 98.5,68.5C 99.0798,70.7488 100.413,72.4154 102.5,73.5C 102.427,75.0269 103.094,76.0269 104.5,76.5C 104.738,78.4044 105.738,79.7377 107.5,80.5C 107.738,82.4044 108.738,83.7377 110.5,84.5C 110.738,86.4044 111.738,87.7377 113.5,88.5C 114.15,90.4352 114.483,92.4352 114.5,94.5C 98.6811,106.137 82.6811,117.637 66.5,129C 64.6131,129.78 62.9464,129.613 61.5,128.5C 60.7377,126.738 59.4044,125.738 57.5,125.5C 56.7377,123.738 55.4044,122.738 53.5,122.5C 53.0269,121.094 52.0269,120.427 50.5,120.5C 49.7377,118.738 48.4044,117.738 46.5,117.5C 46.0269,116.094 45.0269,115.427 43.5,115.5C 43.0269,114.094 42.0269,113.427 40.5,113.5C 39.7377,111.738 38.4044,110.738 36.5,110.5C 36.0269,109.094 35.0269,108.427 33.5,108.5C 32.7377,106.738 31.4044,105.738 29.5,105.5C 29.0269,104.094 28.0269,103.427 26.5,103.5C 25.7377,101.738 24.4044,100.738 22.5,100.5C 22.0269,99.0937 21.0269,98.427 19.5,98.5C 19.0269,97.0937 18.0269,96.427 16.5,96.5C 15.3146,95.1434 14.3146,93.6434 13.5,92C 13.9891,90.8615 14.3225,89.6948 14.5,88.5C 16.2624,87.7377 17.2624,86.4044 17.5,84.5C 18.9063,84.0269 19.573,83.0269 19.5,81.5C 21.2624,80.7377 22.2624,79.4044 22.5,77.5C 24.2624,76.7377 25.2624,75.4044 25.5,73.5C 27.2624,72.7377 28.2624,71.4044 28.5,69.5C 30.2624,68.7377 31.2624,67.4044 31.5,65.5C 32.9063,65.0269 33.573,64.0269 33.5,62.5C 35.5869,61.4154 36.9202,59.7488 37.5,57.5C 38.9063,57.0269 39.573,56.0269 39.5,54.5C 41.2624,53.7377 42.2624,52.4044 42.5,50.5C 44.2624,49.7377 45.2624,48.4044 45.5,46.5C 46.9063,46.0269 47.573,45.0269 47.5,43.5C 49.2624,42.7377 50.2624,41.4044 50.5,39.5C 52.2624,38.7377 53.2624,37.4044 53.5,35.5C 55.2624,34.7377 56.2624,33.4044 56.5,31.5C 58.2624,30.7377 59.2624,29.4044 59.5,27.5C 60.9063,27.0269 61.573,26.0269 61.5,24.5C 63.1667,23.1667 64.8333,23.1667 66.5,24.5 Z M 62.5,35.5 C 63.8118,63.0269 63.8118,90.6936 62.5,118.5C 61.8333,118.5 61.1667,118.5 60.5,118.5C 59.5637,117.026 58.2303,116.026 56.5,115.5C 54.4687,113.478 52.1354,111.811 49.5,110.5C 48.7095,109.599 47.7095,108.932 46.5,108.5C 45.5637,107.026 44.2303,106.026 42.5,105.5C 42.0269,104.094 41.0269,103.427 39.5,103.5C 38.5637,102.026 37.2303,101.026 35.5,100.5C 34.5637,99.0256 33.2303,98.0256 31.5,97.5C 31.1583,96.6618 30.4916,96.3284 29.5,96.5C 28.4206,94.457 26.754,93.1237 24.5,92.5C 23.8333,92.1667 23.1667,91.8333 22.5,91.5C 23.1098,90.609 23.4431,89.609 23.5,88.5C 28.975,82.2295 33.975,75.5628 38.5,68.5C 39.9063,68.0269 40.573,67.0269 40.5,65.5C 48.3193,55.8637 55.6526,45.8637 62.5,35.5 Z"/></g>
<g><path style="opacity:0.482" fill="#c1c4f3" d="M 66.5,24.5 C 67.9063,24.9731 68.573,25.9731 68.5,27.5C 67.0937,27.0269 66.427,26.0269 66.5,24.5 Z"/></g>
<g><path style="opacity:0.878" fill="#adb0f5" d="M 59.5,27.5 C 59.2624,29.4044 58.2624,30.7377 56.5,31.5C 56.7376,29.5956 57.7376,28.2623 59.5,27.5 Z"/></g>
<g><path style="opacity:0.608" fill="#aeb2f5" d="M 68.5,27.5 C 69.9063,27.9731 70.573,28.9731 70.5,30.5C 69.0937,30.0269 68.427,29.0269 68.5,27.5 Z"/></g>
<g><path style="opacity:0.682" fill="#b6b9f4" d="M 56.5,31.5 C 56.2624,33.4044 55.2624,34.7377 53.5,35.5C 53.7376,33.5956 54.7376,32.2623 56.5,31.5 Z"/></g>
<g><path style="opacity:0.558" fill="#acb3f5" d="M 60.5,118.5 C 61.1667,118.5 61.8333,118.5 62.5,118.5C 63.8118,90.6936 63.8118,63.0269 62.5,35.5C 62.3691,34.6236 62.7025,33.9569 63.5,33.5C 64.4998,62.4923 64.8332,91.4923 64.5,120.5C 62.6203,120.771 61.287,120.104 60.5,118.5 Z"/></g>
<g><path style="opacity:0.831" fill="#b6b9f4" d="M 53.5,35.5 C 53.2624,37.4044 52.2624,38.7377 50.5,39.5C 50.7376,37.5956 51.7376,36.2623 53.5,35.5 Z"/></g>
<g><path style="opacity:0.718" fill="#a8acf6" d="M 73.5,34.5 C 75.2624,35.2623 76.2624,36.5956 76.5,38.5C 74.7376,37.7377 73.7376,36.4044 73.5,34.5 Z"/></g>
<g><path style="opacity:0.678" fill="#aeb2f5" d="M 76.5,38.5 C 78.2624,39.2623 79.2624,40.5956 79.5,42.5C 77.7376,41.7377 76.7376,40.4044 76.5,38.5 Z"/></g>
<g><path style="opacity:0.561" fill="#c0c2f3" d="M 50.5,39.5 C 50.2624,41.4044 49.2624,42.7377 47.5,43.5C 47.7376,41.5956 48.7376,40.2623 50.5,39.5 Z"/></g>
<g><path style="opacity:0.725" fill="#b8baf4" d="M 47.5,43.5 C 47.573,45.0269 46.9063,46.0269 45.5,46.5C 45.427,44.9731 46.0937,43.9731 47.5,43.5 Z"/></g>
<g><path style="opacity:0.627" fill="#b2b5f5" d="M 79.5,42.5 C 81.2624,43.2623 82.2624,44.5956 82.5,46.5C 80.7376,45.7377 79.7376,44.4044 79.5,42.5 Z"/></g>
<g><path style="opacity:0.855" fill="#aeb1f5" d="M 45.5,46.5 C 45.2624,48.4044 44.2624,49.7377 42.5,50.5C 42.7376,48.5956 43.7376,47.2623 45.5,46.5 Z"/></g>
<g><path style="opacity:0.596" fill="#afb3f5" d="M 82.5,46.5 C 83.9063,46.9731 84.573,47.9731 84.5,49.5C 83.0937,49.0269 82.427,48.0269 82.5,46.5 Z"/></g>
<g><path style="opacity:0.749" fill="#a5a9f6" d="M 84.5,49.5 C 86.2624,50.2623 87.2624,51.5956 87.5,53.5C 85.7376,52.7377 84.7376,51.4044 84.5,49.5 Z"/></g>
<g><path style="opacity:0.635" fill="#b8baf4" d="M 42.5,50.5 C 42.2624,52.4044 41.2624,53.7377 39.5,54.5C 39.7376,52.5956 40.7376,51.2623 42.5,50.5 Z"/></g>
<g><path style="opacity:0.792" fill="#afb3f5" d="M 39.5,54.5 C 39.573,56.0269 38.9063,57.0269 37.5,57.5C 37.427,55.9731 38.0937,54.9731 39.5,54.5 Z"/></g>
<g><path style="opacity:0.718" fill="#a9acf5" d="M 87.5,53.5 C 89.2624,54.2623 90.2624,55.5956 90.5,57.5C 88.7376,56.7377 87.7376,55.4044 87.5,53.5 Z"/></g>
<g><path style="opacity:0.655" fill="#b0b3f5" d="M 90.5,57.5 C 92.2624,58.2623 93.2624,59.5956 93.5,61.5C 91.7376,60.7377 90.7376,59.4044 90.5,57.5 Z"/></g>
<g><path style="opacity:0.565" fill="#bcbdf4" d="M 37.5,57.5 C 36.9202,59.7488 35.5869,61.4154 33.5,62.5C 34.0798,60.2512 35.4131,58.5846 37.5,57.5 Z"/></g>
<g><path style="opacity:0.729" fill="#b9bbf4" d="M 33.5,62.5 C 33.573,64.0269 32.9063,65.0269 31.5,65.5C 31.427,63.9731 32.0937,62.9731 33.5,62.5 Z"/></g>
<g><path style="opacity:0.627" fill="#b3b6f5" d="M 93.5,61.5 C 95.2624,62.2623 96.2624,63.5956 96.5,65.5C 94.7376,64.7377 93.7376,63.4044 93.5,61.5 Z"/></g>
<g><path style="opacity:0.855" fill="#b0b3f5" d="M 31.5,65.5 C 31.2624,67.4044 30.2624,68.7377 28.5,69.5C 28.7376,67.5956 29.7376,66.2623 31.5,65.5 Z"/></g>
<g><path style="opacity:0.004" fill="#d6d6f1" d="M 40.5,65.5 C 40.573,67.0269 39.9063,68.0269 38.5,68.5C 38.427,66.9731 39.0937,65.9731 40.5,65.5 Z"/></g>
<g><path style="opacity:0.588" fill="#b0b4f5" d="M 96.5,65.5 C 97.9063,65.9731 98.573,66.9731 98.5,68.5C 97.0937,68.0269 96.427,67.0269 96.5,65.5 Z"/></g>
<g><path style="opacity:0.631" fill="#b9bbf4" d="M 28.5,69.5 C 28.2624,71.4044 27.2624,72.7377 25.5,73.5C 25.7376,71.5956 26.7376,70.2623 28.5,69.5 Z"/></g>
<g><path style="opacity:0.529" fill="#bbbdf4" d="M 98.5,68.5 C 100.587,69.5846 101.92,71.2512 102.5,73.5C 100.413,72.4154 99.0798,70.7488 98.5,68.5 Z"/></g>
<g><path style="opacity:0.784" fill="#b9bbf4" d="M 25.5,73.5 C 25.2624,75.4044 24.2624,76.7377 22.5,77.5C 22.7376,75.5956 23.7376,74.2623 25.5,73.5 Z"/></g>
<g><path style="opacity:0.518" fill="#b9bdf4" d="M 102.5,73.5 C 103.906,73.9731 104.573,74.9731 104.5,76.5C 103.094,76.0269 102.427,75.0269 102.5,73.5 Z"/></g>
<g><path style="opacity:0.659" fill="#b0b3f5" d="M 104.5,76.5 C 106.262,77.2623 107.262,78.5956 107.5,80.5C 105.738,79.7377 104.738,78.4044 104.5,76.5 Z"/></g>
<g><path style="opacity:0.557" fill="#c2c4f3" d="M 22.5,77.5 C 22.2624,79.4044 21.2624,80.7377 19.5,81.5C 19.7376,79.5956 20.7376,78.2623 22.5,77.5 Z"/></g>
<g><path style="opacity:0.729" fill="#bbbcf4" d="M 19.5,81.5 C 19.573,83.0269 18.9063,84.0269 17.5,84.5C 17.427,82.9731 18.0937,81.9731 19.5,81.5 Z"/></g>
<g><path style="opacity:0.6" fill="#b4b7f5" d="M 107.5,80.5 C 109.262,81.2623 110.262,82.5956 110.5,84.5C 108.738,83.7377 107.738,82.4044 107.5,80.5 Z"/></g>
<g><path style="opacity:0.839" fill="#b1b4f5" d="M 17.5,84.5 C 17.2624,86.4044 16.2624,87.7377 14.5,88.5C 14.7376,86.5956 15.7376,85.2623 17.5,84.5 Z"/></g>
<g><path style="opacity:0.761" fill="#b8baf4" d="M 110.5,84.5 C 112.262,85.2623 113.262,86.5956 113.5,88.5C 111.738,87.7377 110.738,86.4044 110.5,84.5 Z"/></g>
<g><path style="opacity:0.235" fill="#cdcef2" d="M 14.5,88.5 C 14.3225,89.6948 13.9891,90.8615 13.5,92C 14.3146,93.6434 15.3146,95.1434 16.5,96.5C 12.8539,95.5385 11.6872,93.2051 13,89.5C 13.3826,88.944 13.8826,88.6107 14.5,88.5 Z"/></g>
<g><path style="opacity:0.353" fill="#c3c6f3" d="M 23.5,88.5 C 23.4431,89.609 23.1098,90.609 22.5,91.5C 21.2848,90.221 21.6182,89.221 23.5,88.5 Z"/></g>
<g><path style="opacity:0.125" fill="#d5d5f1" d="M 113.5,88.5 C 114.947,89.1342 115.613,90.3009 115.5,92C 115.472,93.0698 115.139,93.9032 114.5,94.5C 114.483,92.4352 114.15,90.4352 113.5,88.5 Z"/></g>
<g><path style="opacity:0.769" fill="#c4c4f3" d="M 24.5,92.5 C 26.754,93.1237 28.4206,94.457 29.5,96.5C 27.2054,95.8645 25.5387,94.5311 24.5,92.5 Z"/></g>
<g><path style="opacity:0.322" fill="#cbcdf2" d="M 16.5,96.5 C 18.0269,96.427 19.0269,97.0937 19.5,98.5C 17.9731,98.573 16.9731,97.9063 16.5,96.5 Z"/></g>
<g><path style="opacity:0.016" fill="#d1d0f1" d="M 31.5,97.5 C 33.2303,98.0256 34.5637,99.0256 35.5,100.5C 33.368,100.446 32.0347,99.4456 31.5,97.5 Z"/></g>
<g><path style="opacity:0.455" fill="#bdbff3" d="M 19.5,98.5 C 21.0269,98.427 22.0269,99.0937 22.5,100.5C 20.9731,100.573 19.9731,99.9063 19.5,98.5 Z"/></g>
<g><path style="opacity:0.596" fill="#b9baf4" d="M 22.5,100.5 C 24.4044,100.738 25.7377,101.738 26.5,103.5C 24.5956,103.262 23.2623,102.262 22.5,100.5 Z"/></g>
<g><path style="opacity:0.859" fill="#b9baf5" d="M 35.5,100.5 C 37.2303,101.026 38.5637,102.026 39.5,103.5C 37.368,103.446 36.0347,102.446 35.5,100.5 Z"/></g>
<g><path style="opacity:0.459" fill="#bec0f3" d="M 26.5,103.5 C 28.0269,103.427 29.0269,104.094 29.5,105.5C 27.9731,105.573 26.9731,104.906 26.5,103.5 Z"/></g>
<g><path style="opacity:0.098" fill="#d9daf0" d="M 39.5,103.5 C 41.0269,103.427 42.0269,104.094 42.5,105.5C 40.9731,105.573 39.9731,104.906 39.5,103.5 Z"/></g>
<g><path style="opacity:0.635" fill="#b9bbf4" d="M 29.5,105.5 C 31.4044,105.738 32.7377,106.738 33.5,108.5C 31.5956,108.262 30.2623,107.262 29.5,105.5 Z"/></g>
<g><path style="opacity:0.929" fill="#b8b7f5" d="M 42.5,105.5 C 44.2303,106.026 45.5637,107.026 46.5,108.5C 44.368,108.446 43.0347,107.446 42.5,105.5 Z"/></g>
<g><path style="opacity:0.459" fill="#bfc1f3" d="M 33.5,108.5 C 35.0269,108.427 36.0269,109.094 36.5,110.5C 34.9731,110.573 33.9731,109.906 33.5,108.5 Z"/></g>
<g><path style="opacity:0.933" fill="#aaabf6" d="M 46.5,108.5 C 47.7095,108.932 48.7095,109.599 49.5,110.5C 47.8212,110.715 46.8212,110.048 46.5,108.5 Z"/></g>
<g><path style="opacity:0.569" fill="#bdbff4" d="M 36.5,110.5 C 38.4044,110.738 39.7377,111.738 40.5,113.5C 38.5956,113.262 37.2623,112.262 36.5,110.5 Z"/></g>
<g><path style="opacity:0.459" fill="#c1c3f3" d="M 40.5,113.5 C 42.0269,113.427 43.0269,114.094 43.5,115.5C 41.9731,115.573 40.9731,114.906 40.5,113.5 Z"/></g>
<g><path style="opacity:0.525" fill="#b9bcf3" d="M 43.5,115.5 C 45.0269,115.427 46.0269,116.094 46.5,117.5C 44.9731,117.573 43.9731,116.906 43.5,115.5 Z"/></g>
<g><path style="opacity:0.667" fill="#b4b5f5" d="M 56.5,115.5 C 58.2303,116.026 59.5637,117.026 60.5,118.5C 58.368,118.446 57.0347,117.446 56.5,115.5 Z"/></g>
<g><path style="opacity:0.608" fill="#b6baf4" d="M 46.5,117.5 C 48.4044,117.738 49.7377,118.738 50.5,120.5C 48.5956,120.262 47.2623,119.262 46.5,117.5 Z"/></g>
<g><path style="opacity:0.478" fill="#bcbff4" d="M 50.5,120.5 C 52.0269,120.427 53.0269,121.094 53.5,122.5C 51.9731,122.573 50.9731,121.906 50.5,120.5 Z"/></g>
<g><path style="opacity:0.647" fill="#babcf3" d="M 53.5,122.5 C 55.4044,122.738 56.7377,123.738 57.5,125.5C 55.5956,125.262 54.2623,124.262 53.5,122.5 Z"/></g>
<g><path style="opacity:0.467" fill="#c7c9f2" d="M 57.5,125.5 C 59.4044,125.738 60.7377,126.738 61.5,128.5C 59.5956,128.262 58.2623,127.262 57.5,125.5 Z"/></g>
</svg>
